<svg viewBox="0 0 1280 800" xmlns="http://www.w3.org/2000/svg" font-family="Segoe UI, Arial, sans-serif" role="img"><title>HMS — Dashboard</title><rect x="0" y="0" width="1280" height="800" rx="12" fill="#ffffff"/><rect x="0" y="0" width="1280" height="34" rx="12" fill="#e7ebef"/><rect x="0" y="20" width="1280" height="14" fill="#e7ebef"/><circle cx="24" cy="17" r="6" fill="#ec6a5e"/><circle cx="44" cy="17" r="6" fill="#f4bf4f"/><circle cx="64" cy="17" r="6" fill="#61c454"/><rect x="480" y="8" width="320" height="18" rx="9" fill="#ffffff" stroke="#e2e8ee"/><text x="640" y="21" text-anchor="middle" font-size="11" fill="#6b7c8d">hms.yourcompany.com</text><rect x="0" y="34" width="220" height="754" fill="#10233b"/><rect x="0" y="34" width="220" height="64" fill="#16304f"/><circle cx="34" cy="66" r="14" fill="#22a447"/><text x="34" y="71" text-anchor="middle" font-size="13" font-weight="bold" fill="#ffffff">H</text><text x="58" y="62" font-size="15" font-weight="bold" fill="#ffffff">HMS</text><text x="58" y="78" font-size="10" fill="#9fb3c8">High Med Support</text><rect x="10" y="102" width="200" height="30" rx="6" fill="#1f7ac0"/><rect x="10" y="102" width="4" height="30" fill="#22a447"/><circle cx="32" cy="117" r="3.5" fill="#ffffff"/><text x="46" y="121" font-size="12.5" fill="#ffffff">Dashboard</text><circle cx="32" cy="151" r="3.5" fill="#5c7189"/><text x="46" y="155" font-size="12.5" fill="#c3d0dd">Products</text><circle cx="32" cy="185" r="3.5" fill="#5c7189"/><text x="46" y="189" font-size="12.5" fill="#c3d0dd">Devices</text><circle cx="32" cy="219" r="3.5" fill="#5c7189"/><text x="46" y="223" font-size="12.5" fill="#c3d0dd">Solutions</text><circle cx="32" cy="253" r="3.5" fill="#5c7189"/><text x="46" y="257" font-size="12.5" fill="#c3d0dd">Customers</text><circle cx="32" cy="287" r="3.5" fill="#5c7189"/><text x="46" y="291" font-size="12.5" fill="#c3d0dd">Sales Orders</text><circle cx="32" cy="321" r="3.5" fill="#5c7189"/><text x="46" y="325" font-size="12.5" fill="#c3d0dd">Invoices</text><circle cx="32" cy="355" r="3.5" fill="#5c7189"/><text x="46" y="359" font-size="12.5" fill="#c3d0dd">Finance</text><circle cx="32" cy="389" r="3.5" fill="#5c7189"/><text x="46" y="393" font-size="12.5" fill="#c3d0dd">Receivables</text><circle cx="32" cy="423" r="3.5" fill="#5c7189"/><text x="46" y="427" font-size="12.5" fill="#c3d0dd">Maintenance</text><circle cx="32" cy="457" r="3.5" fill="#5c7189"/><text x="46" y="461" font-size="12.5" fill="#c3d0dd">Leads</text><circle cx="32" cy="491" r="3.5" fill="#5c7189"/><text x="46" y="495" font-size="12.5" fill="#c3d0dd">Quotations</text><circle cx="32" cy="525" r="3.5" fill="#5c7189"/><text x="46" y="529" font-size="12.5" fill="#c3d0dd">Shipments</text><circle cx="32" cy="559" r="3.5" fill="#5c7189"/><text x="46" y="563" font-size="12.5" fill="#c3d0dd">Employees</text><circle cx="32" cy="593" r="3.5" fill="#5c7189"/><text x="46" y="597" font-size="12.5" fill="#c3d0dd">Reports</text><circle cx="32" cy="627" r="3.5" fill="#5c7189"/><text x="46" y="631" font-size="12.5" fill="#c3d0dd">Smart Advisor</text><circle cx="32" cy="661" r="3.5" fill="#5c7189"/><text x="46" y="665" font-size="12.5" fill="#c3d0dd">Settings</text><rect x="220" y="34" width="1060" height="60" fill="#ffffff" stroke="#e2e8ee"/><text x="248" y="70" font-size="18" font-weight="bold" fill="#1c2b3a">Dashboard</text><rect x="950" y="50" width="200" height="28" rx="14" fill="#f2f5f8"/><text x="960" y="68" font-size="11" fill="#6b7c8d">Search…</text><circle cx="1190" cy="64" r="15" fill="#1f7ac0"/><text x="1190" y="68" text-anchor="middle" font-size="11" fill="#ffffff" font-weight="bold">MH</text><rect x="248" y="118" width="239" height="92" rx="10" fill="#ffffff" stroke="#e2e8ee"/><rect x="248" y="118" width="6" height="92" rx="3" fill="#1f7ac0"/><text x="270" y="146" font-size="11" fill="#6b7c8d">Inventory value</text><text x="270" y="176" font-size="24" font-weight="bold" fill="#1c2b3a">SAR 214,300</text><text x="270" y="196" font-size="10.5" fill="#6b7c8d">42 products in stock</text><rect x="503" y="118" width="239" height="92" rx="10" fill="#ffffff" stroke="#e2e8ee"/><rect x="503" y="118" width="6" height="92" rx="3" fill="#d9534f"/><text x="525" y="146" font-size="11" fill="#6b7c8d">Below reorder point</text><text x="525" y="176" font-size="24" font-weight="bold" fill="#1c2b3a">6</text><text x="525" y="196" font-size="10.5" fill="#6b7c8d">products need restocking</text><rect x="758" y="118" width="239" height="92" rx="10" fill="#ffffff" stroke="#e2e8ee"/><rect x="758" y="118" width="6" height="92" rx="3" fill="#e0a418"/><text x="780" y="146" font-size="11" fill="#6b7c8d">Outstanding receivables</text><text x="780" y="176" font-size="24" font-weight="bold" fill="#1c2b3a">SAR 58,900</text><text x="780" y="196" font-size="10.5" fill="#6b7c8d">across 11 customers</text><rect x="1013" y="118" width="239" height="92" rx="10" fill="#ffffff" stroke="#e2e8ee"/><rect x="1013" y="118" width="6" height="92" rx="3" fill="#22a447"/><text x="1035" y="146" font-size="11" fill="#6b7c8d">Zakat estimate</text><text x="1035" y="176" font-size="24" font-weight="bold" fill="#1c2b3a">SAR 4,120</text><text x="1035" y="196" font-size="10.5" fill="#6b7c8d">simplified internal estimate</text><rect x="248" y="234" width="622" height="300" rx="10" fill="#ffffff" stroke="#e2e8ee"/><circle cx="274" cy="264" r="10" fill="#22a447"/><text x="294" y="268" font-size="14" font-weight="bold" fill="#1c2b3a">Smart Advisor insights</text><circle cx="274" cy="296" r="3" fill="#1f7ac0"/><text x="288" y="300" font-size="12.5" fill="#1c2b3a">Last 30 days: 24 orders, SAR 96,400 revenue</text><circle cx="274" cy="330" r="3" fill="#1f7ac0"/><text x="288" y="334" font-size="12.5" fill="#1c2b3a">3 products projected to stock out within 7 days</text><circle cx="274" cy="364" r="3" fill="#1f7ac0"/><text x="288" y="368" font-size="12.5" fill="#1c2b3a">Receivables aging: SAR 18,200 overdue &gt; 30 days</text><circle cx="274" cy="398" r="3" fill="#1f7ac0"/><text x="288" y="402" font-size="12.5" fill="#1c2b3a">Top mover: Infusion Pump (12 units this month)</text><rect x="268" y="506" width="34" height="40" rx="4" fill="#1f7ac0" opacity="0.85"/><rect x="316" y="481" width="34" height="65" rx="4" fill="#1f7ac0" opacity="0.85"/><rect x="364" y="496" width="34" height="50" rx="4" fill="#1f7ac0" opacity="0.85"/><rect x="412" y="466" width="34" height="80" rx="4" fill="#1f7ac0" opacity="0.85"/><rect x="460" y="486" width="34" height="60" rx="4" fill="#1f7ac0" opacity="0.85"/><rect x="508" y="456" width="34" height="90" rx="4" fill="#1f7ac0" opacity="0.85"/><rect x="556" y="476" width="34" height="70" rx="4" fill="#1f7ac0" opacity="0.85"/><text x="268" y="568" font-size="10" fill="#6b7c8d">Weekly sales trend</text><rect x="890.48" y="234" width="362" height="140" rx="10" fill="#ffffff" stroke="#e2e8ee"/><text x="910.48" y="264" font-size="13" font-weight="bold" fill="#1c2b3a">Zakat estimate</text><text x="910.48" y="292" font-size="11.5" fill="#6b7c8d">Total assets</text><text x="1232" y="292" text-anchor="end" font-size="11.5" font-weight="bold" fill="#1c2b3a">SAR 320,000</text><text x="910.48" y="316" font-size="11.5" fill="#6b7c8d">Total liabilities</text><text x="1232" y="316" text-anchor="end" font-size="11.5" font-weight="bold" fill="#1c2b3a">SAR 71,500</text><text x="910.48" y="340" font-size="11.5" fill="#6b7c8d">Estimated Zakat</text><text x="1232" y="340" text-anchor="end" font-size="11.5" font-weight="bold" fill="#1c2b3a">SAR 4,120</text><rect x="890.48" y="394" width="362" height="140" rx="10" fill="#ffffff" stroke="#e2e8ee"/><text x="910.48" y="424" font-size="13" font-weight="bold" fill="#1c2b3a">ZATCA compliance</text><circle cx="914.48" cy="446" r="6" fill="#22a447"/><text x="930.48" y="450" font-size="11.5" fill="#1c2b3a">VAT registration</text><circle cx="914.48" cy="470" r="6" fill="#22a447"/><text x="930.48" y="474" font-size="11.5" fill="#1c2b3a">QR code on invoices</text><circle cx="914.48" cy="494" r="6" fill="#22a447"/><text x="930.48" y="498" font-size="11.5" fill="#1c2b3a">Zakat registration</text></svg>